<svg xmlns="http://www.w3.org/2000/svg" xmlns:xlink="http://www.w3.org/1999/xlink" width="300" zoomAndPan="magnify" viewBox="0 0 224.87999 74.999997" height="100" preserveAspectRatio="xMidYMid meet" version="1.0"><defs><g/></defs><g fill="#000000" fill-opacity="1"><g transform="translate(0.906679, 24.506918)"><g><path d="M 14.6875 -17.6875 L 14.6875 -17.1875 C 14.375 -17.125 14.054688 -16.921875 13.734375 -16.578125 C 13.421875 -16.234375 13.070312 -15.695312 12.6875 -14.96875 L 7.640625 -4.96875 L 7.21875 -4.96875 L 1.375 -15.765625 C 1.039062 -16.378906 0.757812 -16.765625 0.53125 -16.921875 C 0.3125 -17.085938 0.109375 -17.171875 -0.078125 -17.171875 L -0.078125 -17.6875 C 0.253906 -17.664062 0.597656 -17.644531 0.953125 -17.625 C 1.316406 -17.613281 1.707031 -17.609375 2.125 -17.609375 C 2.675781 -17.609375 3.265625 -17.613281 3.890625 -17.625 C 4.515625 -17.632812 5.09375 -17.65625 5.625 -17.6875 L 5.625 -17.171875 C 5.207031 -17.171875 4.835938 -17.117188 4.515625 -17.015625 C 4.203125 -16.910156 3.992188 -16.722656 3.890625 -16.453125 C 3.796875 -16.191406 3.875 -15.820312 4.125 -15.34375 L 8.34375 -7.25 L 8.140625 -7.09375 L 11.46875 -13.71875 C 11.9375 -14.632812 12.164062 -15.34375 12.15625 -15.84375 C 12.144531 -16.34375 11.945312 -16.6875 11.5625 -16.875 C 11.1875 -17.070312 10.644531 -17.175781 9.9375 -17.1875 L 9.9375 -17.6875 C 10.425781 -17.664062 10.921875 -17.644531 11.421875 -17.625 C 11.921875 -17.613281 12.382812 -17.609375 12.8125 -17.609375 C 13.25 -17.609375 13.609375 -17.613281 13.890625 -17.625 C 14.171875 -17.644531 14.4375 -17.664062 14.6875 -17.6875 Z M 8.765625 -7.59375 L 8.765625 -2.640625 C 8.765625 -2.046875 8.8125 -1.597656 8.90625 -1.296875 C 9.007812 -0.992188 9.207031 -0.789062 9.5 -0.6875 C 9.789062 -0.59375 10.222656 -0.53125 10.796875 -0.5 L 10.796875 0 C 10.410156 -0.03125 9.929688 -0.0507812 9.359375 -0.0625 C 8.785156 -0.0703125 8.207031 -0.078125 7.625 -0.078125 C 6.96875 -0.078125 6.359375 -0.0703125 5.796875 -0.0625 C 5.234375 -0.0507812 4.773438 -0.03125 4.421875 0 L 4.421875 -0.5 C 4.984375 -0.53125 5.410156 -0.59375 5.703125 -0.6875 C 5.992188 -0.789062 6.191406 -0.992188 6.296875 -1.296875 C 6.398438 -1.597656 6.453125 -2.046875 6.453125 -2.640625 L 6.453125 -7.765625 L 7.796875 -6.21875 Z M 8.765625 -7.59375 "/></g></g></g><g fill="#000000" fill-opacity="1"><g transform="translate(20.04415, 24.506918)"><g><path d="M 6.84375 -13.21875 C 7.90625 -13.21875 8.863281 -12.984375 9.71875 -12.515625 C 10.570312 -12.046875 11.25 -11.3125 11.75 -10.3125 C 12.257812 -9.3125 12.515625 -8.015625 12.515625 -6.421875 C 12.515625 -4.816406 12.257812 -3.519531 11.75 -2.53125 C 11.25 -1.539062 10.570312 -0.8125 9.71875 -0.34375 C 8.863281 0.113281 7.90625 0.34375 6.84375 0.34375 C 5.789062 0.34375 4.835938 0.113281 3.984375 -0.34375 C 3.128906 -0.8125 2.445312 -1.539062 1.9375 -2.53125 C 1.425781 -3.519531 1.171875 -4.816406 1.171875 -6.421875 C 1.171875 -8.015625 1.425781 -9.3125 1.9375 -10.3125 C 2.445312 -11.3125 3.128906 -12.046875 3.984375 -12.515625 C 4.835938 -12.984375 5.789062 -13.21875 6.84375 -13.21875 Z M 6.84375 -12.71875 C 5.894531 -12.71875 5.113281 -12.222656 4.5 -11.234375 C 3.894531 -10.253906 3.59375 -8.648438 3.59375 -6.421875 C 3.59375 -4.191406 3.894531 -2.585938 4.5 -1.609375 C 5.113281 -0.640625 5.894531 -0.15625 6.84375 -0.15625 C 7.789062 -0.15625 8.566406 -0.640625 9.171875 -1.609375 C 9.785156 -2.585938 10.09375 -4.191406 10.09375 -6.421875 C 10.09375 -8.648438 9.785156 -10.253906 9.171875 -11.234375 C 8.566406 -12.222656 7.789062 -12.71875 6.84375 -12.71875 Z M 6.84375 -12.71875 "/></g></g></g><g fill="#000000" fill-opacity="1"><g transform="translate(38.107366, 24.506918)"><g><path d="M 12.0625 -13.140625 L 12.0625 -2.703125 C 12.0625 -1.953125 12.195312 -1.394531 12.46875 -1.03125 C 12.75 -0.675781 13.25 -0.5 13.96875 -0.5 L 13.96875 0.03125 C 13.445312 -0.0195312 12.929688 -0.046875 12.421875 -0.046875 C 11.929688 -0.046875 11.46875 -0.0234375 11.03125 0.015625 C 10.59375 0.0664062 10.1875 0.160156 9.8125 0.296875 L 9.8125 -2.640625 C 9.394531 -1.566406 8.804688 -0.800781 8.046875 -0.34375 C 7.296875 0.113281 6.519531 0.34375 5.71875 0.34375 C 5.132812 0.34375 4.625 0.257812 4.1875 0.09375 C 3.757812 -0.0703125 3.40625 -0.300781 3.125 -0.59375 C 2.800781 -0.925781 2.582031 -1.359375 2.46875 -1.890625 C 2.351562 -2.429688 2.296875 -3.09375 2.296875 -3.875 L 2.296875 -10.140625 C 2.296875 -10.890625 2.160156 -11.441406 1.890625 -11.796875 C 1.628906 -12.160156 1.132812 -12.34375 0.40625 -12.34375 L 0.40625 -12.859375 C 0.9375 -12.816406 1.453125 -12.796875 1.953125 -12.796875 C 2.429688 -12.796875 2.890625 -12.820312 3.328125 -12.875 C 3.773438 -12.9375 4.179688 -13.023438 4.546875 -13.140625 L 4.546875 -3.328125 C 4.546875 -2.804688 4.578125 -2.328125 4.640625 -1.890625 C 4.710938 -1.460938 4.878906 -1.113281 5.140625 -0.84375 C 5.410156 -0.582031 5.847656 -0.453125 6.453125 -0.453125 C 7.097656 -0.453125 7.671875 -0.648438 8.171875 -1.046875 C 8.679688 -1.453125 9.082031 -1.992188 9.375 -2.671875 C 9.664062 -3.359375 9.8125 -4.125 9.8125 -4.96875 L 9.8125 -10.140625 C 9.8125 -10.890625 9.675781 -11.441406 9.40625 -11.796875 C 9.144531 -12.160156 8.648438 -12.34375 7.921875 -12.34375 L 7.921875 -12.859375 C 8.453125 -12.816406 8.96875 -12.796875 9.46875 -12.796875 C 9.945312 -12.796875 10.40625 -12.820312 10.84375 -12.875 C 11.289062 -12.9375 11.695312 -13.023438 12.0625 -13.140625 Z M 12.0625 -13.140625 "/></g></g></g><g fill="#000000" fill-opacity="1"><g transform="translate(56.995011, 24.506918)"><g/></g></g><g fill="#000000" fill-opacity="1"><g transform="translate(67.597648, 24.506918)"><g><path d="M 5.96875 -8.640625 L 6.140625 -9.140625 L 14.96875 -9.140625 L 14.765625 -8.640625 Z M 15.421875 -15.046875 C 15.585938 -15.660156 15.65625 -16.113281 15.625 -16.40625 C 15.601562 -16.695312 15.457031 -16.894531 15.1875 -17 C 14.925781 -17.113281 14.507812 -17.175781 13.9375 -17.1875 L 14.0625 -17.6875 C 14.507812 -17.664062 15.09375 -17.644531 15.8125 -17.625 C 16.53125 -17.613281 17.25 -17.609375 17.96875 -17.609375 C 18.78125 -17.609375 19.550781 -17.613281 20.28125 -17.625 C 21.019531 -17.644531 21.625 -17.664062 22.09375 -17.6875 L 21.96875 -17.1875 C 21.394531 -17.175781 20.945312 -17.113281 20.625 -17 C 20.3125 -16.894531 20.066406 -16.695312 19.890625 -16.40625 C 19.722656 -16.113281 19.554688 -15.660156 19.390625 -15.046875 L 16.09375 -2.640625 C 15.9375 -2.046875 15.867188 -1.597656 15.890625 -1.296875 C 15.910156 -0.992188 16.050781 -0.789062 16.3125 -0.6875 C 16.582031 -0.59375 17 -0.53125 17.5625 -0.5 L 17.46875 0 C 17.019531 -0.03125 16.425781 -0.0507812 15.6875 -0.0625 C 14.957031 -0.0703125 14.179688 -0.078125 13.359375 -0.078125 C 12.648438 -0.078125 11.929688 -0.0703125 11.203125 -0.0625 C 10.484375 -0.0507812 9.894531 -0.03125 9.4375 0 L 9.546875 -0.5 C 10.109375 -0.53125 10.546875 -0.59375 10.859375 -0.6875 C 11.179688 -0.789062 11.429688 -0.992188 11.609375 -1.296875 C 11.796875 -1.597656 11.96875 -2.046875 12.125 -2.640625 Z M 5.59375 -2.640625 C 5.445312 -2.046875 5.378906 -1.597656 5.390625 -1.296875 C 5.410156 -0.992188 5.550781 -0.789062 5.8125 -0.6875 C 6.082031 -0.59375 6.503906 -0.53125 7.078125 -0.5 L 6.96875 0 C 6.5 -0.03125 5.910156 -0.0507812 5.203125 -0.0625 C 4.492188 -0.0703125 3.773438 -0.078125 3.046875 -0.078125 C 2.210938 -0.078125 1.4375 -0.0703125 0.71875 -0.0625 C 0.0078125 -0.0507812 -0.570312 -0.03125 -1.03125 0 L -0.90625 -0.5 C -0.351562 -0.53125 0.0703125 -0.59375 0.375 -0.6875 C 0.6875 -0.789062 0.9375 -0.992188 1.125 -1.296875 C 1.3125 -1.597656 1.476562 -2.046875 1.625 -2.640625 L 4.921875 -15.046875 C 5.085938 -15.660156 5.15625 -16.113281 5.125 -16.40625 C 5.09375 -16.695312 4.945312 -16.894531 4.6875 -17 C 4.425781 -17.113281 4.015625 -17.175781 3.453125 -17.1875 L 3.578125 -17.6875 C 3.992188 -17.664062 4.566406 -17.644531 5.296875 -17.625 C 6.023438 -17.613281 6.804688 -17.609375 7.640625 -17.609375 C 8.378906 -17.609375 9.09375 -17.613281 9.78125 -17.625 C 10.46875 -17.644531 11.070312 -17.664062 11.59375 -17.6875 L 11.46875 -17.1875 C 10.90625 -17.175781 10.460938 -17.113281 10.140625 -17 C 9.828125 -16.894531 9.582031 -16.695312 9.40625 -16.40625 C 9.226562 -16.113281 9.054688 -15.660156 8.890625 -15.046875 Z M 5.59375 -2.640625 "/></g></g></g><g fill="#000000" fill-opacity="1"><g transform="translate(92.206332, 24.506918)"><g><path d="M 4.375 -1 C 4.632812 -1 4.921875 -1.140625 5.234375 -1.421875 C 5.554688 -1.703125 5.882812 -2.113281 6.21875 -2.65625 C 6.550781 -3.195312 6.875 -3.859375 7.1875 -4.640625 C 7.507812 -5.429688 7.800781 -6.34375 8.0625 -7.375 L 7.515625 -4.640625 C 7.097656 -3.410156 6.640625 -2.425781 6.140625 -1.6875 C 5.640625 -0.957031 5.109375 -0.4375 4.546875 -0.125 C 3.984375 0.1875 3.390625 0.34375 2.765625 0.34375 C 1.835938 0.34375 1.140625 0.0703125 0.671875 -0.46875 C 0.203125 -1.019531 -0.03125 -1.769531 -0.03125 -2.71875 C -0.03125 -3.625 0.125 -4.566406 0.4375 -5.546875 C 0.75 -6.523438 1.164062 -7.472656 1.6875 -8.390625 C 2.207031 -9.304688 2.796875 -10.128906 3.453125 -10.859375 C 4.117188 -11.597656 4.820312 -12.179688 5.5625 -12.609375 C 6.300781 -13.046875 7.03125 -13.265625 7.75 -13.265625 C 8.289062 -13.265625 8.710938 -13.046875 9.015625 -12.609375 C 9.316406 -12.179688 9.410156 -11.507812 9.296875 -10.59375 L 9.015625 -10.4375 C 9.097656 -11.039062 9.066406 -11.507812 8.921875 -11.84375 C 8.785156 -12.175781 8.550781 -12.34375 8.21875 -12.34375 C 7.882812 -12.34375 7.515625 -12.148438 7.109375 -11.765625 C 6.703125 -11.378906 6.296875 -10.851562 5.890625 -10.1875 C 5.492188 -9.519531 5.125 -8.765625 4.78125 -7.921875 C 4.4375 -7.085938 4.164062 -6.207031 3.96875 -5.28125 C 3.769531 -4.351562 3.671875 -3.441406 3.671875 -2.546875 C 3.671875 -1.984375 3.726562 -1.582031 3.84375 -1.34375 C 3.957031 -1.113281 4.132812 -1 4.375 -1 Z M 9.671875 -12.890625 C 10.390625 -12.910156 11.035156 -12.945312 11.609375 -13 C 12.191406 -13.0625 12.753906 -13.148438 13.296875 -13.265625 L 10.015625 -2.125 C 9.960938 -1.90625 9.925781 -1.695312 9.90625 -1.5 C 9.882812 -1.3125 9.910156 -1.160156 9.984375 -1.046875 C 10.054688 -0.929688 10.1875 -0.875 10.375 -0.875 C 10.582031 -0.875 10.820312 -1.003906 11.09375 -1.265625 C 11.363281 -1.523438 11.640625 -2.050781 11.921875 -2.84375 L 12.375 -4.046875 L 12.84375 -4.046875 L 12.21875 -2.21875 C 11.988281 -1.539062 11.6875 -1.015625 11.3125 -0.640625 C 10.945312 -0.273438 10.554688 -0.0195312 10.140625 0.125 C 9.722656 0.269531 9.316406 0.34375 8.921875 0.34375 C 8.054688 0.34375 7.441406 0.0859375 7.078125 -0.421875 C 6.828125 -0.785156 6.710938 -1.238281 6.734375 -1.78125 C 6.753906 -2.320312 6.867188 -2.941406 7.078125 -3.640625 Z M 9.671875 -12.890625 "/></g></g></g><g fill="#000000" fill-opacity="1"><g transform="translate(110.519376, 24.506918)"><g><path d="M 11.671875 -8.21875 C 11.003906 -8.550781 10.421875 -9.007812 9.921875 -9.59375 C 9.429688 -10.175781 9.195312 -10.851562 9.21875 -11.625 C 9.238281 -12.15625 9.394531 -12.5625 9.6875 -12.84375 C 9.988281 -13.125 10.375 -13.265625 10.84375 -13.265625 C 11.476562 -13.265625 11.925781 -13.003906 12.1875 -12.484375 C 12.457031 -11.972656 12.566406 -11.273438 12.515625 -10.390625 C 12.460938 -9.460938 12.316406 -8.492188 12.078125 -7.484375 C 11.835938 -6.472656 11.503906 -5.5 11.078125 -4.5625 C 10.648438 -3.632812 10.113281 -2.800781 9.46875 -2.0625 C 8.832031 -1.320312 8.09375 -0.734375 7.25 -0.296875 C 6.414062 0.128906 5.460938 0.34375 4.390625 0.34375 C 3.472656 0.34375 2.753906 0.191406 2.234375 -0.109375 C 1.722656 -0.421875 1.363281 -0.8125 1.15625 -1.28125 C 0.945312 -1.757812 0.851562 -2.25 0.875 -2.75 C 0.894531 -3.757812 1.191406 -4.796875 1.765625 -5.859375 C 2.347656 -6.929688 3.144531 -8.003906 4.15625 -9.078125 C 5.164062 -10.148438 6.300781 -11.207031 7.5625 -12.25 C 7.15625 -12.195312 6.785156 -12.0625 6.453125 -11.84375 C 6.117188 -11.625 5.804688 -11.390625 5.515625 -11.140625 C 5.234375 -10.890625 4.953125 -10.671875 4.671875 -10.484375 C 4.398438 -10.304688 4.117188 -10.21875 3.828125 -10.21875 C 3.535156 -10.21875 3.285156 -10.296875 3.078125 -10.453125 C 2.867188 -10.609375 2.644531 -10.6875 2.40625 -10.6875 C 2.164062 -10.6875 1.972656 -10.59375 1.828125 -10.40625 C 1.691406 -10.226562 1.550781 -9.925781 1.40625 -9.5 L 1.203125 -8.8125 L 0.71875 -8.8125 L 1.28125 -10.640625 C 1.5625 -11.671875 1.910156 -12.367188 2.328125 -12.734375 C 2.753906 -13.109375 3.1875 -13.296875 3.625 -13.296875 C 3.9375 -13.296875 4.203125 -13.222656 4.421875 -13.078125 C 4.648438 -12.929688 4.894531 -12.789062 5.15625 -12.65625 C 5.414062 -12.53125 5.753906 -12.46875 6.171875 -12.46875 C 6.441406 -12.46875 6.726562 -12.503906 7.03125 -12.578125 C 7.34375 -12.648438 7.664062 -12.785156 8 -12.984375 L 8.25 -13.46875 L 8.765625 -13.21875 C 8.171875 -12.351562 7.628906 -11.460938 7.140625 -10.546875 C 6.660156 -9.640625 6.242188 -8.734375 5.890625 -7.828125 C 5.546875 -6.921875 5.269531 -6.046875 5.0625 -5.203125 C 4.863281 -4.367188 4.75 -3.59375 4.71875 -2.875 C 4.6875 -2.144531 4.757812 -1.613281 4.9375 -1.28125 C 5.125 -0.945312 5.425781 -0.78125 5.84375 -0.78125 C 6.457031 -0.78125 7.039062 -0.929688 7.59375 -1.234375 C 8.144531 -1.546875 8.644531 -1.960938 9.09375 -2.484375 C 9.539062 -3.003906 9.9375 -3.585938 10.28125 -4.234375 C 10.632812 -4.878906 10.925781 -5.546875 11.15625 -6.234375 C 11.394531 -6.921875 11.566406 -7.582031 11.671875 -8.21875 Z M 11.671875 -8.21875 "/></g></g></g><g fill="#000000" fill-opacity="1"><g transform="translate(128.007984, 24.506918)"><g><path d="M 3.265625 -5.421875 C 3.953125 -5.691406 4.601562 -5.992188 5.21875 -6.328125 C 5.832031 -6.660156 6.359375 -7.023438 6.796875 -7.421875 C 7.441406 -8.003906 7.957031 -8.679688 8.34375 -9.453125 C 8.738281 -10.234375 8.9375 -11.070312 8.9375 -11.96875 C 8.9375 -12.300781 8.90625 -12.519531 8.84375 -12.625 C 8.78125 -12.738281 8.679688 -12.796875 8.546875 -12.796875 C 8.179688 -12.796875 7.785156 -12.609375 7.359375 -12.234375 C 6.929688 -11.859375 6.507812 -11.359375 6.09375 -10.734375 C 5.675781 -10.109375 5.296875 -9.394531 4.953125 -8.59375 C 4.617188 -7.789062 4.347656 -6.957031 4.140625 -6.09375 C 3.929688 -5.226562 3.828125 -4.390625 3.828125 -3.578125 C 3.828125 -2.640625 4.003906 -2 4.359375 -1.65625 C 4.710938 -1.320312 5.175781 -1.15625 5.75 -1.15625 C 6.195312 -1.15625 6.753906 -1.300781 7.421875 -1.59375 C 8.085938 -1.894531 8.742188 -2.429688 9.390625 -3.203125 L 9.796875 -3 C 9.441406 -2.445312 8.976562 -1.910156 8.40625 -1.390625 C 7.84375 -0.878906 7.1875 -0.460938 6.4375 -0.140625 C 5.695312 0.179688 4.882812 0.34375 4 0.34375 C 3.25 0.34375 2.578125 0.210938 1.984375 -0.046875 C 1.390625 -0.316406 0.921875 -0.710938 0.578125 -1.234375 C 0.242188 -1.765625 0.078125 -2.410156 0.078125 -3.171875 C 0.078125 -4.054688 0.222656 -4.960938 0.515625 -5.890625 C 0.804688 -6.828125 1.21875 -7.734375 1.75 -8.609375 C 2.28125 -9.484375 2.921875 -10.273438 3.671875 -10.984375 C 4.421875 -11.691406 5.253906 -12.25 6.171875 -12.65625 C 7.085938 -13.0625 8.0625 -13.265625 9.09375 -13.265625 C 9.820312 -13.265625 10.4375 -13.101562 10.9375 -12.78125 C 11.4375 -12.457031 11.6875 -11.960938 11.6875 -11.296875 C 11.6875 -10.640625 11.507812 -10.03125 11.15625 -9.46875 C 10.800781 -8.90625 10.320312 -8.390625 9.71875 -7.921875 C 9.113281 -7.453125 8.441406 -7.035156 7.703125 -6.671875 C 6.960938 -6.304688 6.203125 -5.988281 5.421875 -5.71875 C 4.648438 -5.457031 3.925781 -5.25 3.25 -5.09375 Z M 3.265625 -5.421875 "/></g></g></g><g fill="#000000" fill-opacity="1"><g transform="translate(13.974818, 60.548298)"><g><path d="M 22.65625 -17.6875 L 22.65625 -17.1875 C 22.34375 -17.125 21.992188 -16.9375 21.609375 -16.625 C 21.222656 -16.320312 20.914062 -15.785156 20.6875 -15.015625 L 15.96875 0.125 C 15.9375 0.125 15.898438 0.125 15.859375 0.125 C 15.828125 0.125 15.796875 0.125 15.765625 0.125 C 15.734375 0.125 15.695312 0.125 15.65625 0.125 C 15.625 0.125 15.59375 0.125 15.5625 0.125 L 10.265625 -15.59375 C 10.046875 -16.238281 9.800781 -16.660156 9.53125 -16.859375 C 9.269531 -17.066406 9.023438 -17.175781 8.796875 -17.1875 L 8.796875 -17.6875 C 9.097656 -17.664062 9.472656 -17.644531 9.921875 -17.625 C 10.367188 -17.613281 10.800781 -17.609375 11.21875 -17.609375 C 11.863281 -17.609375 12.46875 -17.613281 13.03125 -17.625 C 13.601562 -17.644531 14.066406 -17.664062 14.421875 -17.6875 L 14.421875 -17.1875 C 13.921875 -17.175781 13.523438 -17.128906 13.234375 -17.046875 C 12.941406 -16.960938 12.773438 -16.773438 12.734375 -16.484375 C 12.691406 -16.203125 12.769531 -15.738281 12.96875 -15.09375 L 16.6875 -3.578125 L 16.34375 -3.265625 L 19.640625 -13.640625 C 19.941406 -14.554688 20.078125 -15.269531 20.046875 -15.78125 C 20.023438 -16.289062 19.835938 -16.648438 19.484375 -16.859375 C 19.140625 -17.066406 18.613281 -17.175781 17.90625 -17.1875 L 17.90625 -17.6875 C 18.394531 -17.664062 18.890625 -17.644531 19.390625 -17.625 C 19.890625 -17.613281 20.351562 -17.609375 20.78125 -17.609375 C 21.21875 -17.609375 21.578125 -17.613281 21.859375 -17.625 C 22.140625 -17.644531 22.40625 -17.664062 22.65625 -17.6875 Z M 5.203125 -17.6875 L 5.203125 -17.1875 C 4.765625 -17.15625 4.445312 -17.070312 4.25 -16.9375 C 4.0625 -16.800781 3.972656 -16.585938 3.984375 -16.296875 C 3.992188 -16.003906 4.082031 -15.601562 4.25 -15.09375 L 8.125 -3.265625 L 7.5 -2.640625 L 11 -13.8125 L 11.375 -13.21875 L 7.25 0.125 C 7.21875 0.125 7.179688 0.125 7.140625 0.125 C 7.109375 0.125 7.078125 0.125 7.046875 0.125 C 7.015625 0.125 6.976562 0.125 6.9375 0.125 C 6.90625 0.125 6.875 0.125 6.84375 0.125 L 1.546875 -15.59375 C 1.328125 -16.238281 1.050781 -16.660156 0.71875 -16.859375 C 0.382812 -17.066406 0.0859375 -17.175781 -0.171875 -17.1875 L -0.171875 -17.6875 C 0.160156 -17.664062 0.570312 -17.644531 1.0625 -17.625 C 1.550781 -17.613281 2.03125 -17.609375 2.5 -17.609375 C 3.050781 -17.609375 3.5625 -17.613281 4.03125 -17.625 C 4.507812 -17.644531 4.898438 -17.664062 5.203125 -17.6875 Z M 5.203125 -17.6875 "/></g></g></g><g fill="#000000" fill-opacity="1"><g transform="translate(36.584174, 60.548298)"><g><path d="M 4.640625 -19.5625 L 4.640625 -10.21875 C 5.078125 -11.351562 5.679688 -12.132812 6.453125 -12.5625 C 7.234375 -13 8.046875 -13.21875 8.890625 -13.21875 C 9.523438 -13.21875 10.054688 -13.132812 10.484375 -12.96875 C 10.910156 -12.800781 11.265625 -12.566406 11.546875 -12.265625 C 11.859375 -11.929688 12.082031 -11.515625 12.21875 -11.015625 C 12.351562 -10.515625 12.421875 -9.84375 12.421875 -9 L 12.421875 -2.328125 C 12.421875 -1.628906 12.566406 -1.15625 12.859375 -0.90625 C 13.148438 -0.65625 13.632812 -0.53125 14.3125 -0.53125 L 14.3125 0 C 14.03125 -0.0195312 13.597656 -0.0390625 13.015625 -0.0625 C 12.429688 -0.0820312 11.863281 -0.09375 11.3125 -0.09375 C 10.769531 -0.09375 10.234375 -0.0820312 9.703125 -0.0625 C 9.179688 -0.0390625 8.785156 -0.0195312 8.515625 0 L 8.515625 -0.53125 C 9.117188 -0.53125 9.546875 -0.65625 9.796875 -0.90625 C 10.046875 -1.15625 10.171875 -1.628906 10.171875 -2.328125 L 10.171875 -9.546875 C 10.171875 -10.054688 10.128906 -10.53125 10.046875 -10.96875 C 9.960938 -11.40625 9.773438 -11.753906 9.484375 -12.015625 C 9.191406 -12.285156 8.742188 -12.421875 8.140625 -12.421875 C 7.460938 -12.421875 6.859375 -12.226562 6.328125 -11.84375 C 5.804688 -11.457031 5.394531 -10.921875 5.09375 -10.234375 C 4.789062 -9.554688 4.640625 -8.773438 4.640625 -7.890625 L 4.640625 -2.328125 C 4.640625 -1.628906 4.765625 -1.15625 5.015625 -0.90625 C 5.265625 -0.65625 5.691406 -0.53125 6.296875 -0.53125 L 6.296875 0 C 6.023438 -0.0195312 5.628906 -0.0390625 5.109375 -0.0625 C 4.585938 -0.0820312 4.050781 -0.09375 3.5 -0.09375 C 2.945312 -0.09375 2.378906 -0.0820312 1.796875 -0.0625 C 1.210938 -0.0390625 0.78125 -0.0195312 0.5 0 L 0.5 -0.53125 C 1.1875 -0.53125 1.675781 -0.65625 1.96875 -0.90625 C 2.257812 -1.15625 2.40625 -1.628906 2.40625 -2.328125 L 2.40625 -16.5625 C 2.40625 -17.3125 2.269531 -17.863281 2 -18.21875 C 1.726562 -18.582031 1.226562 -18.765625 0.5 -18.765625 L 0.5 -19.28125 C 1.03125 -19.238281 1.546875 -19.21875 2.046875 -19.21875 C 2.523438 -19.21875 2.984375 -19.242188 3.421875 -19.296875 C 3.867188 -19.359375 4.273438 -19.445312 4.640625 -19.5625 Z M 4.640625 -19.5625 "/></g></g></g><g fill="#000000" fill-opacity="1"><g transform="translate(51.274003, 60.548298)"><g><path d="M 4.265625 0.171875 C 3.585938 0.171875 3 0.046875 2.5 -0.203125 C 2 -0.460938 1.617188 -0.828125 1.359375 -1.296875 C 1.097656 -1.765625 0.96875 -2.304688 0.96875 -2.921875 C 0.96875 -3.648438 1.140625 -4.25 1.484375 -4.71875 C 1.828125 -5.1875 2.265625 -5.5625 2.796875 -5.84375 C 3.328125 -6.125 3.890625 -6.359375 4.484375 -6.546875 C 5.078125 -6.742188 5.640625 -6.929688 6.171875 -7.109375 C 6.703125 -7.285156 7.140625 -7.488281 7.484375 -7.71875 C 7.828125 -7.945312 8 -8.253906 8 -8.640625 L 8 -10.1875 C 8 -10.894531 7.894531 -11.429688 7.6875 -11.796875 C 7.476562 -12.160156 7.195312 -12.40625 6.84375 -12.53125 C 6.5 -12.65625 6.109375 -12.71875 5.671875 -12.71875 C 5.253906 -12.71875 4.804688 -12.660156 4.328125 -12.546875 C 3.859375 -12.429688 3.484375 -12.1875 3.203125 -11.8125 C 3.515625 -11.75 3.785156 -11.582031 4.015625 -11.3125 C 4.253906 -11.050781 4.375 -10.710938 4.375 -10.296875 C 4.375 -9.878906 4.238281 -9.546875 3.96875 -9.296875 C 3.707031 -9.054688 3.367188 -8.9375 2.953125 -8.9375 C 2.460938 -8.9375 2.101562 -9.09375 1.875 -9.40625 C 1.65625 -9.71875 1.546875 -10.0625 1.546875 -10.4375 C 1.546875 -10.875 1.65625 -11.222656 1.875 -11.484375 C 2.09375 -11.753906 2.367188 -12.007812 2.703125 -12.25 C 3.078125 -12.507812 3.566406 -12.734375 4.171875 -12.921875 C 4.785156 -13.117188 5.476562 -13.21875 6.25 -13.21875 C 6.925781 -13.21875 7.503906 -13.132812 7.984375 -12.96875 C 8.472656 -12.8125 8.875 -12.585938 9.1875 -12.296875 C 9.625 -11.890625 9.910156 -11.398438 10.046875 -10.828125 C 10.179688 -10.253906 10.25 -9.566406 10.25 -8.765625 L 10.25 -1.828125 C 10.25 -1.410156 10.3125 -1.109375 10.4375 -0.921875 C 10.5625 -0.742188 10.753906 -0.65625 11.015625 -0.65625 C 11.203125 -0.65625 11.378906 -0.695312 11.546875 -0.78125 C 11.710938 -0.863281 11.910156 -0.992188 12.140625 -1.171875 L 12.421875 -0.75 C 12.066406 -0.476562 11.726562 -0.253906 11.40625 -0.078125 C 11.09375 0.0859375 10.671875 0.171875 10.140625 0.171875 C 9.660156 0.171875 9.257812 0.0859375 8.9375 -0.078125 C 8.625 -0.242188 8.390625 -0.488281 8.234375 -0.8125 C 8.078125 -1.132812 8 -1.546875 8 -2.046875 C 7.550781 -1.296875 7.015625 -0.738281 6.390625 -0.375 C 5.765625 -0.0078125 5.054688 0.171875 4.265625 0.171875 Z M 5.171875 -0.828125 C 5.722656 -0.828125 6.234375 -0.984375 6.703125 -1.296875 C 7.179688 -1.617188 7.613281 -2.09375 8 -2.71875 L 8 -7.625 C 7.789062 -7.34375 7.492188 -7.101562 7.109375 -6.90625 C 6.734375 -6.71875 6.320312 -6.523438 5.875 -6.328125 C 5.425781 -6.140625 4.992188 -5.914062 4.578125 -5.65625 C 4.171875 -5.394531 3.832031 -5.054688 3.5625 -4.640625 C 3.300781 -4.222656 3.171875 -3.679688 3.171875 -3.015625 C 3.171875 -2.359375 3.347656 -1.828125 3.703125 -1.421875 C 4.066406 -1.023438 4.554688 -0.828125 5.171875 -0.828125 Z M 5.171875 -0.828125 "/></g></g></g><g fill="#000000" fill-opacity="1"><g transform="translate(63.715388, 60.548298)"><g><path d="M 4.75 -17.015625 L 4.75 -12.84375 L 8.4375 -12.84375 L 8.4375 -12.34375 L 4.75 -12.34375 L 4.75 -2.671875 C 4.75 -1.890625 4.890625 -1.335938 5.171875 -1.015625 C 5.453125 -0.703125 5.84375 -0.546875 6.34375 -0.546875 C 6.84375 -0.546875 7.273438 -0.75 7.640625 -1.15625 C 8.003906 -1.570312 8.320312 -2.257812 8.59375 -3.21875 L 9.09375 -3.09375 C 8.925781 -2.132812 8.597656 -1.320312 8.109375 -0.65625 C 7.617188 0.0078125 6.863281 0.34375 5.84375 0.34375 C 5.28125 0.34375 4.8125 0.269531 4.4375 0.125 C 4.070312 -0.0078125 3.75 -0.207031 3.46875 -0.46875 C 3.101562 -0.851562 2.847656 -1.3125 2.703125 -1.84375 C 2.566406 -2.375 2.5 -3.082031 2.5 -3.96875 L 2.5 -12.34375 L 0.09375 -12.34375 L 0.09375 -12.84375 L 2.5 -12.84375 L 2.5 -16.671875 C 2.914062 -16.679688 3.3125 -16.710938 3.6875 -16.765625 C 4.070312 -16.816406 4.425781 -16.898438 4.75 -17.015625 Z M 4.75 -17.015625 "/></g></g></g><g fill="#000000" fill-opacity="1"><g transform="translate(72.559263, 60.548298)"><g/></g></g><g fill="#000000" fill-opacity="1"><g transform="translate(78.779961, 60.548298)"><g><path d="M 1.046875 -17.6875 C 1.398438 -17.664062 1.859375 -17.644531 2.421875 -17.625 C 2.984375 -17.613281 3.539062 -17.609375 4.09375 -17.609375 C 4.875 -17.609375 5.625 -17.613281 6.34375 -17.625 C 7.0625 -17.644531 7.570312 -17.65625 7.875 -17.65625 C 9.882812 -17.65625 11.390625 -17.195312 12.390625 -16.28125 C 13.390625 -15.375 13.890625 -14.191406 13.890625 -12.734375 C 13.890625 -12.140625 13.789062 -11.515625 13.59375 -10.859375 C 13.394531 -10.203125 13.046875 -9.59375 12.546875 -9.03125 C 12.054688 -8.46875 11.382812 -8.007812 10.53125 -7.65625 C 9.6875 -7.3125 8.617188 -7.140625 7.328125 -7.140625 L 4.921875 -7.140625 L 4.921875 -7.640625 L 7.078125 -7.640625 C 8.253906 -7.640625 9.15625 -7.863281 9.78125 -8.3125 C 10.40625 -8.769531 10.828125 -9.363281 11.046875 -10.09375 C 11.273438 -10.820312 11.390625 -11.613281 11.390625 -12.46875 C 11.390625 -14.050781 11.078125 -15.234375 10.453125 -16.015625 C 9.828125 -16.796875 8.757812 -17.1875 7.25 -17.1875 C 6.476562 -17.1875 5.972656 -17.046875 5.734375 -16.765625 C 5.503906 -16.484375 5.390625 -15.910156 5.390625 -15.046875 L 5.390625 -2.640625 C 5.390625 -2.046875 5.453125 -1.597656 5.578125 -1.296875 C 5.703125 -0.992188 5.945312 -0.789062 6.3125 -0.6875 C 6.6875 -0.59375 7.222656 -0.53125 7.921875 -0.5 L 7.921875 0 C 7.484375 -0.03125 6.929688 -0.0507812 6.265625 -0.0625 C 5.597656 -0.0703125 4.925781 -0.078125 4.25 -0.078125 C 3.59375 -0.078125 2.984375 -0.0703125 2.421875 -0.0625 C 1.859375 -0.0507812 1.398438 -0.03125 1.046875 0 L 1.046875 -0.5 C 1.617188 -0.53125 2.046875 -0.59375 2.328125 -0.6875 C 2.617188 -0.789062 2.816406 -0.992188 2.921875 -1.296875 C 3.023438 -1.597656 3.078125 -2.046875 3.078125 -2.640625 L 3.078125 -15.046875 C 3.078125 -15.660156 3.023438 -16.113281 2.921875 -16.40625 C 2.816406 -16.695312 2.617188 -16.894531 2.328125 -17 C 2.046875 -17.113281 1.617188 -17.175781 1.046875 -17.1875 Z M 1.046875 -17.6875 "/></g></g></g><g fill="#000000" fill-opacity="1"><g transform="translate(93.394849, 60.548298)"><g><path d="M 6.796875 -13.21875 C 8.265625 -13.21875 9.410156 -12.769531 10.234375 -11.875 C 11.054688 -10.988281 11.46875 -9.601562 11.46875 -7.71875 L 2.640625 -7.71875 L 2.625 -8.1875 L 9.0625 -8.1875 C 9.101562 -9.007812 9.039062 -9.765625 8.875 -10.453125 C 8.707031 -11.148438 8.441406 -11.703125 8.078125 -12.109375 C 7.722656 -12.523438 7.265625 -12.734375 6.703125 -12.734375 C 5.929688 -12.734375 5.25 -12.347656 4.65625 -11.578125 C 4.0625 -10.816406 3.707031 -9.601562 3.59375 -7.9375 L 3.671875 -7.84375 C 3.640625 -7.59375 3.613281 -7.316406 3.59375 -7.015625 C 3.582031 -6.722656 3.578125 -6.425781 3.578125 -6.125 C 3.578125 -4.988281 3.757812 -4.007812 4.125 -3.1875 C 4.488281 -2.375 4.96875 -1.753906 5.5625 -1.328125 C 6.15625 -0.910156 6.765625 -0.703125 7.390625 -0.703125 C 7.890625 -0.703125 8.363281 -0.78125 8.8125 -0.9375 C 9.269531 -1.09375 9.6875 -1.351562 10.0625 -1.71875 C 10.445312 -2.09375 10.78125 -2.585938 11.0625 -3.203125 L 11.5625 -3 C 11.382812 -2.445312 11.085938 -1.910156 10.671875 -1.390625 C 10.253906 -0.878906 9.726562 -0.460938 9.09375 -0.140625 C 8.457031 0.179688 7.722656 0.34375 6.890625 0.34375 C 5.691406 0.34375 4.660156 0.0703125 3.796875 -0.46875 C 2.941406 -1.019531 2.285156 -1.78125 1.828125 -2.75 C 1.378906 -3.726562 1.15625 -4.851562 1.15625 -6.125 C 1.15625 -7.582031 1.382812 -8.84375 1.84375 -9.90625 C 2.3125 -10.96875 2.96875 -11.785156 3.8125 -12.359375 C 4.664062 -12.929688 5.660156 -13.21875 6.796875 -13.21875 Z M 6.796875 -13.21875 "/></g></g></g><g fill="#000000" fill-opacity="1"><g transform="translate(106.036101, 60.548298)"><g><path d="M 6.84375 -13.21875 C 7.90625 -13.21875 8.863281 -12.984375 9.71875 -12.515625 C 10.570312 -12.046875 11.25 -11.3125 11.75 -10.3125 C 12.257812 -9.3125 12.515625 -8.015625 12.515625 -6.421875 C 12.515625 -4.816406 12.257812 -3.519531 11.75 -2.53125 C 11.25 -1.539062 10.570312 -0.8125 9.71875 -0.34375 C 8.863281 0.113281 7.90625 0.34375 6.84375 0.34375 C 5.789062 0.34375 4.835938 0.113281 3.984375 -0.34375 C 3.128906 -0.8125 2.445312 -1.539062 1.9375 -2.53125 C 1.425781 -3.519531 1.171875 -4.816406 1.171875 -6.421875 C 1.171875 -8.015625 1.425781 -9.3125 1.9375 -10.3125 C 2.445312 -11.3125 3.128906 -12.046875 3.984375 -12.515625 C 4.835938 -12.984375 5.789062 -13.21875 6.84375 -13.21875 Z M 6.84375 -12.71875 C 5.894531 -12.71875 5.113281 -12.222656 4.5 -11.234375 C 3.894531 -10.253906 3.59375 -8.648438 3.59375 -6.421875 C 3.59375 -4.191406 3.894531 -2.585938 4.5 -1.609375 C 5.113281 -0.640625 5.894531 -0.15625 6.84375 -0.15625 C 7.789062 -0.15625 8.566406 -0.640625 9.171875 -1.609375 C 9.785156 -2.585938 10.09375 -4.191406 10.09375 -6.421875 C 10.09375 -8.648438 9.785156 -10.253906 9.171875 -11.234375 C 8.566406 -12.222656 7.789062 -12.71875 6.84375 -12.71875 Z M 6.84375 -12.71875 "/></g></g></g><g fill="#000000" fill-opacity="1"><g transform="translate(119.726629, 60.548298)"><g><path d="M 4.703125 -13.140625 L 4.703125 2.203125 C 4.703125 2.910156 4.910156 3.382812 5.328125 3.625 C 5.753906 3.875 6.34375 4 7.09375 4 L 7.09375 4.515625 C 6.726562 4.503906 6.21875 4.484375 5.5625 4.453125 C 4.914062 4.429688 4.226562 4.421875 3.5 4.421875 C 2.976562 4.421875 2.460938 4.429688 1.953125 4.453125 C 1.453125 4.484375 1.066406 4.503906 0.796875 4.515625 L 0.796875 4 C 1.398438 4 1.828125 3.890625 2.078125 3.671875 C 2.328125 3.453125 2.453125 3.046875 2.453125 2.453125 L 2.453125 -10.140625 C 2.453125 -10.890625 2.316406 -11.441406 2.046875 -11.796875 C 1.785156 -12.160156 1.285156 -12.34375 0.546875 -12.34375 L 0.546875 -12.859375 C 1.078125 -12.816406 1.59375 -12.796875 2.09375 -12.796875 C 2.582031 -12.796875 3.046875 -12.820312 3.484375 -12.875 C 3.921875 -12.9375 4.328125 -13.023438 4.703125 -13.140625 Z M 8.6875 -13.21875 C 9.570312 -13.21875 10.363281 -12.976562 11.0625 -12.5 C 11.769531 -12.03125 12.328125 -11.335938 12.734375 -10.421875 C 13.140625 -9.503906 13.34375 -8.367188 13.34375 -7.015625 C 13.34375 -6.117188 13.234375 -5.234375 13.015625 -4.359375 C 12.796875 -3.484375 12.457031 -2.691406 12 -1.984375 C 11.539062 -1.273438 10.945312 -0.707031 10.21875 -0.28125 C 9.5 0.132812 8.632812 0.34375 7.625 0.34375 C 6.84375 0.34375 6.160156 0.160156 5.578125 -0.203125 C 5.003906 -0.566406 4.617188 -1.007812 4.421875 -1.53125 L 4.671875 -1.875 C 4.898438 -1.40625 5.234375 -1.007812 5.671875 -0.6875 C 6.117188 -0.375 6.675781 -0.21875 7.34375 -0.21875 C 8.28125 -0.21875 9.003906 -0.507812 9.515625 -1.09375 C 10.035156 -1.675781 10.398438 -2.453125 10.609375 -3.421875 C 10.816406 -4.398438 10.921875 -5.484375 10.921875 -6.671875 C 10.921875 -8.003906 10.8125 -9.09375 10.59375 -9.9375 C 10.375 -10.789062 10.046875 -11.425781 9.609375 -11.84375 C 9.179688 -12.257812 8.648438 -12.46875 8.015625 -12.46875 C 7.203125 -12.46875 6.460938 -12.128906 5.796875 -11.453125 C 5.128906 -10.773438 4.703125 -9.753906 4.515625 -8.390625 L 4.21875 -8.75 C 4.40625 -10.164062 4.910156 -11.265625 5.734375 -12.046875 C 6.554688 -12.828125 7.539062 -13.21875 8.6875 -13.21875 Z M 8.6875 -13.21875 "/></g></g></g><g fill="#000000" fill-opacity="1"><g transform="translate(134.241584, 60.548298)"><g><path d="M 4.703125 -19.59375 L 4.703125 -2.328125 C 4.703125 -1.628906 4.847656 -1.15625 5.140625 -0.90625 C 5.429688 -0.65625 5.914062 -0.53125 6.59375 -0.53125 L 6.59375 0 C 6.3125 -0.0195312 5.882812 -0.0390625 5.3125 -0.0625 C 4.738281 -0.0820312 4.160156 -0.09375 3.578125 -0.09375 C 3.003906 -0.09375 2.425781 -0.0820312 1.84375 -0.0625 C 1.257812 -0.0390625 0.828125 -0.0195312 0.546875 0 L 0.546875 -0.53125 C 1.234375 -0.53125 1.722656 -0.65625 2.015625 -0.90625 C 2.304688 -1.15625 2.453125 -1.628906 2.453125 -2.328125 L 2.453125 -16.59375 C 2.453125 -17.34375 2.316406 -17.894531 2.046875 -18.25 C 1.785156 -18.601562 1.285156 -18.78125 0.546875 -18.78125 L 0.546875 -19.3125 C 1.078125 -19.257812 1.59375 -19.234375 2.09375 -19.234375 C 2.582031 -19.234375 3.046875 -19.257812 3.484375 -19.3125 C 3.921875 -19.375 4.328125 -19.46875 4.703125 -19.59375 Z M 4.703125 -19.59375 "/></g></g></g><g fill="#000000" fill-opacity="1"><g transform="translate(141.386643, 60.548298)"><g><path d="M 6.796875 -13.21875 C 8.265625 -13.21875 9.410156 -12.769531 10.234375 -11.875 C 11.054688 -10.988281 11.46875 -9.601562 11.46875 -7.71875 L 2.640625 -7.71875 L 2.625 -8.1875 L 9.0625 -8.1875 C 9.101562 -9.007812 9.039062 -9.765625 8.875 -10.453125 C 8.707031 -11.148438 8.441406 -11.703125 8.078125 -12.109375 C 7.722656 -12.523438 7.265625 -12.734375 6.703125 -12.734375 C 5.929688 -12.734375 5.25 -12.347656 4.65625 -11.578125 C 4.0625 -10.816406 3.707031 -9.601562 3.59375 -7.9375 L 3.671875 -7.84375 C 3.640625 -7.59375 3.613281 -7.316406 3.59375 -7.015625 C 3.582031 -6.722656 3.578125 -6.425781 3.578125 -6.125 C 3.578125 -4.988281 3.757812 -4.007812 4.125 -3.1875 C 4.488281 -2.375 4.96875 -1.753906 5.5625 -1.328125 C 6.15625 -0.910156 6.765625 -0.703125 7.390625 -0.703125 C 7.890625 -0.703125 8.363281 -0.78125 8.8125 -0.9375 C 9.269531 -1.09375 9.6875 -1.351562 10.0625 -1.71875 C 10.445312 -2.09375 10.78125 -2.585938 11.0625 -3.203125 L 11.5625 -3 C 11.382812 -2.445312 11.085938 -1.910156 10.671875 -1.390625 C 10.253906 -0.878906 9.726562 -0.460938 9.09375 -0.140625 C 8.457031 0.179688 7.722656 0.34375 6.890625 0.34375 C 5.691406 0.34375 4.660156 0.0703125 3.796875 -0.46875 C 2.941406 -1.019531 2.285156 -1.78125 1.828125 -2.75 C 1.378906 -3.726562 1.15625 -4.851562 1.15625 -6.125 C 1.15625 -7.582031 1.382812 -8.84375 1.84375 -9.90625 C 2.3125 -10.96875 2.96875 -11.785156 3.8125 -12.359375 C 4.664062 -12.929688 5.660156 -13.21875 6.796875 -13.21875 Z M 6.796875 -13.21875 "/></g></g></g><g fill="#000000" fill-opacity="1"><g transform="translate(154.027894, 60.548298)"><g/></g></g><g fill="#000000" fill-opacity="1"><g transform="translate(160.252222, 60.548298)"><g><path d="M 14.3125 -12.421875 L 6.75 0.125 L 5.453125 0.125 L 3.46875 -15.59375 C 3.40625 -16.207031 3.226562 -16.625 2.9375 -16.84375 C 2.65625 -17.0625 2.394531 -17.175781 2.15625 -17.1875 L 2.28125 -17.6875 C 2.6875 -17.664062 3.207031 -17.644531 3.84375 -17.625 C 4.476562 -17.613281 5.117188 -17.609375 5.765625 -17.609375 C 6.429688 -17.609375 7.039062 -17.613281 7.59375 -17.625 C 8.15625 -17.644531 8.628906 -17.664062 9.015625 -17.6875 L 8.890625 -17.1875 C 8.359375 -17.15625 7.988281 -17.007812 7.78125 -16.75 C 7.570312 -16.488281 7.507812 -15.9375 7.59375 -15.09375 L 8.84375 -3.875 L 8.09375 -3.09375 L 14.171875 -13.0625 Z M 23.4375 -14.109375 C 23.863281 -14.910156 24.070312 -15.523438 24.0625 -15.953125 C 24.0625 -16.390625 23.878906 -16.695312 23.515625 -16.875 C 23.160156 -17.050781 22.644531 -17.15625 21.96875 -17.1875 L 22.09375 -17.6875 C 22.320312 -17.664062 22.628906 -17.648438 23.015625 -17.640625 C 23.410156 -17.640625 23.828125 -17.632812 24.265625 -17.625 C 24.710938 -17.613281 25.078125 -17.609375 25.359375 -17.609375 C 25.742188 -17.609375 26.085938 -17.613281 26.390625 -17.625 C 26.703125 -17.644531 26.992188 -17.664062 27.265625 -17.6875 L 27.140625 -17.1875 C 26.804688 -17.101562 26.476562 -16.976562 26.15625 -16.8125 C 25.84375 -16.644531 25.523438 -16.382812 25.203125 -16.03125 C 24.890625 -15.6875 24.550781 -15.191406 24.1875 -14.546875 L 16.3125 0.125 L 15.015625 0.125 L 12.84375 -15.59375 C 12.757812 -16.207031 12.609375 -16.625 12.390625 -16.84375 C 12.171875 -17.0625 11.960938 -17.175781 11.765625 -17.1875 L 11.890625 -17.6875 C 12.273438 -17.664062 12.757812 -17.644531 13.34375 -17.625 C 13.9375 -17.613281 14.535156 -17.609375 15.140625 -17.609375 C 15.941406 -17.609375 16.679688 -17.613281 17.359375 -17.625 C 18.046875 -17.644531 18.601562 -17.664062 19.03125 -17.6875 L 18.90625 -17.1875 C 18.070312 -17.15625 17.507812 -17.015625 17.21875 -16.765625 C 16.9375 -16.515625 16.851562 -15.957031 16.96875 -15.09375 L 18.359375 -4.078125 L 17.609375 -3.390625 Z M 23.4375 -14.109375 "/></g></g></g><g fill="#000000" fill-opacity="1"><g transform="translate(184.78524, 60.548298)"><g><path d="M 4.375 -1 C 4.632812 -1 4.921875 -1.140625 5.234375 -1.421875 C 5.554688 -1.703125 5.882812 -2.113281 6.21875 -2.65625 C 6.550781 -3.195312 6.875 -3.859375 7.1875 -4.640625 C 7.507812 -5.429688 7.800781 -6.34375 8.0625 -7.375 L 7.515625 -4.640625 C 7.097656 -3.410156 6.640625 -2.425781 6.140625 -1.6875 C 5.640625 -0.957031 5.109375 -0.4375 4.546875 -0.125 C 3.984375 0.1875 3.390625 0.34375 2.765625 0.34375 C 1.835938 0.34375 1.140625 0.0703125 0.671875 -0.46875 C 0.203125 -1.019531 -0.03125 -1.769531 -0.03125 -2.71875 C -0.03125 -3.625 0.125 -4.566406 0.4375 -5.546875 C 0.75 -6.523438 1.164062 -7.472656 1.6875 -8.390625 C 2.207031 -9.304688 2.796875 -10.128906 3.453125 -10.859375 C 4.117188 -11.597656 4.820312 -12.179688 5.5625 -12.609375 C 6.300781 -13.046875 7.03125 -13.265625 7.75 -13.265625 C 8.289062 -13.265625 8.710938 -13.046875 9.015625 -12.609375 C 9.316406 -12.179688 9.410156 -11.507812 9.296875 -10.59375 L 9.015625 -10.4375 C 9.097656 -11.039062 9.066406 -11.507812 8.921875 -11.84375 C 8.785156 -12.175781 8.550781 -12.34375 8.21875 -12.34375 C 7.882812 -12.34375 7.515625 -12.148438 7.109375 -11.765625 C 6.703125 -11.378906 6.296875 -10.851562 5.890625 -10.1875 C 5.492188 -9.519531 5.125 -8.765625 4.78125 -7.921875 C 4.4375 -7.085938 4.164062 -6.207031 3.96875 -5.28125 C 3.769531 -4.351562 3.671875 -3.441406 3.671875 -2.546875 C 3.671875 -1.984375 3.726562 -1.582031 3.84375 -1.34375 C 3.957031 -1.113281 4.132812 -1 4.375 -1 Z M 9.671875 -12.890625 C 10.390625 -12.910156 11.035156 -12.945312 11.609375 -13 C 12.191406 -13.0625 12.753906 -13.148438 13.296875 -13.265625 L 10.015625 -2.125 C 9.960938 -1.90625 9.925781 -1.695312 9.90625 -1.5 C 9.882812 -1.3125 9.910156 -1.160156 9.984375 -1.046875 C 10.054688 -0.929688 10.1875 -0.875 10.375 -0.875 C 10.582031 -0.875 10.820312 -1.003906 11.09375 -1.265625 C 11.363281 -1.523438 11.640625 -2.050781 11.921875 -2.84375 L 12.375 -4.046875 L 12.84375 -4.046875 L 12.21875 -2.21875 C 11.988281 -1.539062 11.6875 -1.015625 11.3125 -0.640625 C 10.945312 -0.273438 10.554688 -0.0195312 10.140625 0.125 C 9.722656 0.269531 9.316406 0.34375 8.921875 0.34375 C 8.054688 0.34375 7.441406 0.0859375 7.078125 -0.421875 C 6.828125 -0.785156 6.710938 -1.238281 6.734375 -1.78125 C 6.753906 -2.320312 6.867188 -2.941406 7.078125 -3.640625 Z M 9.671875 -12.890625 "/></g></g></g><g fill="#000000" fill-opacity="1"><g transform="translate(198.725596, 60.548298)"><g><path d="M 3.921875 0 L 0.40625 0 L 3.421875 -10.796875 C 3.503906 -11.023438 3.554688 -11.234375 3.578125 -11.421875 C 3.609375 -11.617188 3.585938 -11.769531 3.515625 -11.875 C 3.453125 -11.988281 3.328125 -12.046875 3.140625 -12.046875 C 2.847656 -12.046875 2.578125 -11.90625 2.328125 -11.625 C 2.085938 -11.351562 1.828125 -10.832031 1.546875 -10.0625 L 1.078125 -8.796875 L 0.59375 -8.796875 L 1.28125 -10.6875 C 1.613281 -11.644531 2.046875 -12.3125 2.578125 -12.6875 C 3.117188 -13.070312 3.757812 -13.265625 4.5 -13.265625 C 5.09375 -13.265625 5.546875 -13.160156 5.859375 -12.953125 C 6.179688 -12.742188 6.394531 -12.460938 6.5 -12.109375 C 6.613281 -11.765625 6.65625 -11.390625 6.625 -10.984375 C 6.601562 -10.578125 6.546875 -10.171875 6.453125 -9.765625 Z M 4.71875 -4.21875 C 5.375 -6.039062 5.976562 -7.535156 6.53125 -8.703125 C 7.09375 -9.878906 7.644531 -10.800781 8.1875 -11.46875 C 8.726562 -12.132812 9.28125 -12.597656 9.84375 -12.859375 C 10.40625 -13.128906 11.015625 -13.265625 11.671875 -13.265625 C 12.460938 -13.265625 13.035156 -13.085938 13.390625 -12.734375 C 13.742188 -12.390625 13.921875 -11.929688 13.921875 -11.359375 C 13.921875 -10.785156 13.8125 -10.164062 13.59375 -9.5 L 11.140625 -2.125 C 10.972656 -1.65625 10.929688 -1.328125 11.015625 -1.140625 C 11.097656 -0.960938 11.25 -0.875 11.46875 -0.875 C 11.6875 -0.875 11.925781 -0.992188 12.1875 -1.234375 C 12.457031 -1.472656 12.742188 -2.007812 13.046875 -2.84375 L 13.484375 -4.046875 L 13.96875 -4.046875 L 13.34375 -2.21875 C 13.101562 -1.519531 12.796875 -0.988281 12.421875 -0.625 C 12.054688 -0.257812 11.660156 -0.0078125 11.234375 0.125 C 10.804688 0.269531 10.394531 0.34375 10 0.34375 C 9.507812 0.34375 9.097656 0.269531 8.765625 0.125 C 8.429688 -0.0078125 8.175781 -0.207031 8 -0.46875 C 7.78125 -0.800781 7.671875 -1.222656 7.671875 -1.734375 C 7.679688 -2.242188 7.8125 -2.875 8.0625 -3.625 L 10.3125 -10.375 C 10.414062 -10.632812 10.484375 -10.890625 10.515625 -11.140625 C 10.546875 -11.390625 10.535156 -11.597656 10.484375 -11.765625 C 10.441406 -11.929688 10.300781 -12.015625 10.0625 -12.015625 C 9.75 -12.015625 9.390625 -11.8125 8.984375 -11.40625 C 8.585938 -11 8.171875 -10.429688 7.734375 -9.703125 C 7.296875 -8.984375 6.859375 -8.140625 6.421875 -7.171875 C 5.984375 -6.203125 5.566406 -5.171875 5.171875 -4.078125 C 4.773438 -2.992188 4.414062 -1.875 4.09375 -0.71875 Z M 4.71875 -4.21875 "/></g></g></g><g fill="#000000" fill-opacity="1"><g transform="translate(213.790169, 60.548298)"><g><path d="M 10.046875 -12.921875 L 9.96875 -12.421875 L 1.296875 -12.421875 L 1.421875 -12.921875 Z M 4.09375 -2.125 C 3.976562 -1.6875 3.988281 -1.367188 4.125 -1.171875 C 4.269531 -0.972656 4.484375 -0.875 4.765625 -0.875 C 5.117188 -0.875 5.46875 -1.046875 5.8125 -1.390625 C 6.164062 -1.742188 6.476562 -2.285156 6.75 -3.015625 L 7.125 -4.046875 L 7.59375 -4.046875 L 7.09375 -2.59375 C 6.757812 -1.59375 6.269531 -0.851562 5.625 -0.375 C 4.988281 0.101562 4.226562 0.34375 3.34375 0.34375 C 2.582031 0.34375 1.992188 0.171875 1.578125 -0.171875 C 1.160156 -0.523438 0.910156 -1.003906 0.828125 -1.609375 C 0.753906 -2.210938 0.820312 -2.882812 1.03125 -3.625 L 4.765625 -16.640625 C 5.484375 -16.660156 6.132812 -16.691406 6.71875 -16.734375 C 7.300781 -16.785156 7.859375 -16.867188 8.390625 -16.984375 Z M 4.09375 -2.125 "/></g></g></g></svg>